<?xml version="1.0" encoding="utf-8"?>
<!-- Generator: Adobe Illustrator 17.1.0, SVG Export Plug-In . SVG Version: 6.00 Build 0)  -->
<!DOCTYPE svg PUBLIC "-//W3C//DTD SVG 1.1//EN" "http://www.w3.org/Graphics/SVG/1.1/DTD/svg11.dtd">
<svg version="1.1" id="Layer_1" xmlns="http://www.w3.org/2000/svg" xmlns:xlink="http://www.w3.org/1999/xlink" x="0px" y="0px"
	 viewBox="0 0 425.2 88.8" style="enable-background:new 0 0 425.2 88.8;" xml:space="preserve">
<style type="text/css">
	.st0{fill:#F0AF13;}
	.st1{fill:#FFFFFF;}
</style>
<g>
	<path class="st0" d="M15.4,3.7v3.9h-5.1v19.7H5.5V7.6H0.4V3.7H15.4z"/>
	<path class="st0" d="M17.5,3.7h8.8c3.9,0,6.3,2,6.3,6.1c0,3.1-1.3,5.2-3.9,5.8v0.1c3.2,0.4,3.7,2.2,3.8,7.2c0,2.5,0.2,3.8,1.1,4.2
		v0.2h-5.1c-0.5-0.7-0.6-1.6-0.6-2.5l-0.1-4.5c-0.1-1.8-0.9-3-2.8-3h-2.5v10h-4.8V3.7z M22.2,14h2c2.3,0,3.6-1,3.6-3.5
		c0-2.2-1.2-3.3-3.3-3.3h-2.2V14z"/>
	<path class="st0" d="M36.1,27.2V3.7h4.8v23.6H36.1z"/>
	<path class="st0" d="M44.4,3.7h8c3.9,0,6.7,1.5,6.7,6c0,2.5-1.2,4.5-3.6,5.1v0.1c2.6,0.4,4.3,2.3,4.3,5.5c0,3.7-1.8,6.9-7.4,6.9h-8
		V3.7z M49.1,13.3h1.4c2.6,0,3.8-0.9,3.8-3.1c0-2.2-1.1-3.1-3.4-3.1h-1.7V13.3z M49.1,23.7H51c2.3,0,3.8-0.8,3.8-3.6
		c0-2.7-1.6-3.5-3.6-3.5h-2V23.7z"/>
	<path class="st0" d="M67.2,3.7v16.4c0,2.3,0.6,4.1,2.8,4.1c2.2,0,2.8-1.8,2.8-4.1V3.7h4.8v16.4c0,6-3.7,7.6-7.5,7.6
		s-7.5-1.3-7.5-7.6V3.7H67.2z"/>
	<path class="st0" d="M94.3,3.7v3.9h-5.1v19.7h-4.8V7.6h-5.1V3.7H94.3z"/>
	<path class="st0" d="M109.5,3.7v3.9H101v5.5h7.9V17H101v6.3h8.7v3.9H96.3V3.7H109.5z"/>
	<path class="st0" d="M133.9,3.7v3.9h-5.1v19.7H124V7.6h-5.1V3.7H133.9z"/>
	<path class="st0" d="M143.5,3.2c7.1,0,8,5.1,8,12.2c0,7.2-0.9,12.2-8,12.2s-8-5.1-8-12.2C135.4,8.3,136.3,3.2,143.5,3.2z
		 M143.5,24.2c2.8,0,3.3-2.4,3.3-8.7c0-6.3-0.5-8.7-3.3-8.7c-2.8,0-3.3,2.4-3.3,8.7C140.2,21.8,140.6,24.2,143.5,24.2z"/>
	<path class="st0" d="M176,3.7v3.9h-5.1v19.7h-4.8V7.6h-5.1V3.7H176z"/>
	<path class="st0" d="M178,3.7h4.8v9h5.5v-9h4.8v23.6h-4.8V16.8h-5.5v10.5H178V3.7z"/>
	<path class="st0" d="M209.5,3.7v3.9h-8.4v5.5h7.9V17h-7.9v6.3h8.7v3.9h-13.5V3.7H209.5z"/>
</g>
<g>
	<path class="st1" d="M1.7,33.5h8c3.9,0,6.7,1.5,6.7,6c0,2.5-1.2,4.5-3.6,5.1v0.1C15.3,45,17,47,17,50.2c0,3.7-1.8,6.9-7.4,6.9h-8
		V33.5z M6.4,43.2h1.4c2.6,0,3.8-0.9,3.8-3.1c0-2.2-1.1-3.1-3.4-3.1H6.4V43.2z M6.4,53.6h1.8c2.3,0,3.8-0.8,3.8-3.6
		c0-2.7-1.6-3.5-3.6-3.5h-2V53.6z"/>
	<path class="st1" d="M20,33.5h8.8c3.9,0,6.3,2,6.3,6.1c0,3.1-1.3,5.2-3.9,5.8v0.1c3.2,0.4,3.7,2.2,3.8,7.2c0,2.5,0.2,3.8,1.1,4.2
		v0.2h-5.1c-0.5-0.7-0.6-1.6-0.6-2.5l-0.1-4.5c-0.1-1.8-0.9-3-2.8-3h-2.5v10H20V33.5z M24.8,43.8h2c2.3,0,3.6-1,3.6-3.5
		c0-2.2-1.2-3.3-3.3-3.3h-2.2V43.8z"/>
	<path class="st1" d="M45.9,33c7.1,0,8,5.1,8,12.2c0,7.2-0.9,12.2-8,12.2s-8-5.1-8-12.2C37.9,38.1,38.7,33,45.9,33z M45.9,54
		c2.8,0,3.3-2.4,3.3-8.7c0-6.3-0.5-8.7-3.3-8.7c-2.8,0-3.3,2.4-3.3,8.7C42.6,51.6,43.1,54,45.9,54z"/>
	<path class="st1" d="M55.3,33.5h4.6l2.6,17.4h0.1l2.8-17.4h4.6l2.8,17.4h0.1l2.6-17.4h4.6l-4.3,23.6h-5.3L67.6,40h-0.1l-2.6,17.1
		h-5.3L55.3,33.5z"/>
	<path class="st1" d="M87.3,33.5L93,49.6h0.1V33.5h4.4v23.6H92l-5.8-16.5h-0.1v16.5h-4.4V33.5H87.3z"/>
	<path class="st1" d="M112.2,33.5l3.3,17.4h0.1l3.5-17.4h4.9l-5.4,23.6h-6.1l-5.4-23.6H112.2z"/>
	<path class="st1" d="M127.9,51.9v5.1h-4.4v-5.1H127.9z"/>
	<path class="st1" d="M138.1,33.5h8c3.9,0,6.7,1.5,6.7,6c0,2.5-1.2,4.5-3.6,5.1v0.1c2.6,0.4,4.3,2.3,4.3,5.5c0,3.7-1.8,6.9-7.4,6.9
		h-8V33.5z M142.8,43.2h1.4c2.6,0,3.8-0.9,3.8-3.1c0-2.2-1.1-3.1-3.4-3.1h-1.7V43.2z M142.8,53.6h1.8c2.3,0,3.8-0.8,3.8-3.6
		c0-2.7-1.6-3.5-3.6-3.5h-2V53.6z"/>
	<path class="st1" d="M163.9,33c7.1,0,8,5.1,8,12.2c0,7.2-0.9,12.2-8,12.2s-8-5.1-8-12.2C155.9,38.1,156.8,33,163.9,33z M163.9,54
		c2.8,0,3.3-2.4,3.3-8.7c0-6.3-0.5-8.7-3.3-8.7c-2.8,0-3.3,2.4-3.3,8.7C160.7,51.6,161.1,54,163.9,54z"/>
	<path class="st1" d="M178.6,33.5h5.9l6.2,23.6h-5l-1.1-5h-6.3l-1.1,5h-5L178.6,33.5z M179.2,48.2h4.6l-2.3-10.6h-0.1L179.2,48.2z"
		/>
	<path class="st1" d="M192.3,33.5h8.8c3.9,0,6.3,2,6.3,6.1c0,3.1-1.3,5.2-3.9,5.8v0.1c3.2,0.4,3.7,2.2,3.8,7.2
		c0,2.5,0.2,3.8,1.1,4.2v0.2h-5.1c-0.5-0.7-0.6-1.6-0.6-2.5l-0.1-4.5c-0.1-1.8-0.9-3-2.8-3h-2.5v10h-4.8V33.5z M197.1,43.8h2
		c2.3,0,3.6-1,3.6-3.5c0-2.2-1.2-3.3-3.3-3.3h-2.2V43.8z"/>
	<path class="st1" d="M210.9,33.5h7.8c6.6,0,7.8,4.5,7.8,11.5c0,8.3-1.8,12.1-8.1,12.1h-7.5V33.5z M215.7,53.6h2.1
		c3.3,0,4-2.1,4-8.5c0-5.3-0.4-8.1-4.1-8.1h-2V53.6z"/>
	<path class="st1" d="M245.1,33c7.1,0,8,5.1,8,12.2c0,7.2-0.9,12.2-8,12.2s-8-5.1-8-12.2C237,38.1,237.9,33,245.1,33z M245.1,54
		c2.8,0,3.3-2.4,3.3-8.7c0-6.3-0.5-8.7-3.3-8.7c-2.8,0-3.3,2.4-3.3,8.7C241.8,51.6,242.3,54,245.1,54z"/>
	<path class="st1" d="M255.9,33.5H269v3.9h-8.4v5.5h7.9v3.9h-7.9v10.2h-4.8V33.5z"/>
	<path class="st1" d="M292.2,33.5v3.9h-8.4v5.5h7.9v3.9h-7.9v6.3h8.7v3.9h-13.5V33.5H292.2z"/>
	<path class="st1" d="M295.2,33.5h7.8c6.6,0,7.8,4.5,7.8,11.5c0,8.3-1.8,12.1-8.1,12.1h-7.5V33.5z M299.9,53.6h2.1
		c3.3,0,4-2.1,4-8.5c0-5.3-0.4-8.1-4.1-8.1h-2V53.6z"/>
	<path class="st1" d="M318.3,33.5v16.4c0,2.3,0.6,4.1,2.8,4.1c2.2,0,2.8-1.8,2.8-4.1V33.5h4.8v16.4c0,6-3.7,7.6-7.5,7.6
		c-3.9,0-7.5-1.3-7.5-7.6V33.5H318.3z"/>
	<path class="st1" d="M341.7,41.4c0-3.4-0.7-4.9-2.8-4.9c-2.4,0-3,2.4-3,9.1c0,7.1,1,8.4,3,8.4c1.7,0,3-0.9,3-6h4.8
		c0,5.1-1.3,9.5-7.5,9.5c-7.1,0-8-5.1-8-12.2c0-7.2,0.9-12.2,8-12.2c6.8,0,7.3,5,7.3,8.4H341.7z"/>
	<path class="st1" d="M353.4,33.5h5.9l6.2,23.6h-5l-1.1-5h-6.3l-1.1,5h-5L353.4,33.5z M354,48.2h4.6l-2.3-10.6h-0.1L354,48.2z"/>
	<path class="st1" d="M379.1,33.5v3.9H374v19.7h-4.8V37.4h-5.1v-3.9H379.1z"/>
	<path class="st1" d="M381.4,57.1V33.5h4.8v23.6H381.4z"/>
	<path class="st1" d="M397.2,33c7.1,0,8,5.1,8,12.2c0,7.2-0.9,12.2-8,12.2c-7.1,0-8-5.1-8-12.2C389.2,38.1,390.1,33,397.2,33z
		 M397.2,54c2.8,0,3.3-2.4,3.3-8.7c0-6.3-0.5-8.7-3.3-8.7c-2.8,0-3.3,2.4-3.3,8.7C394,51.6,394.4,54,397.2,54z"/>
	<path class="st1" d="M413.5,33.5l5.7,16.1h0.1V33.5h4.4v23.6h-5.4l-5.8-16.5h-0.1v16.5H408V33.5H413.5z"/>
</g>
<g>
	<g>
		<path class="st0" d="M304.2,63.3h7.8c6.6,0,7.8,4.5,7.8,11.5c0,8.3-1.8,12.1-8.1,12.1h-7.5V63.3z M308.9,83.4h2.1
			c3.3,0,4-2.1,4-8.5c0-5.3-0.4-8.1-4.1-8.1h-2V83.4z"/>
		<path class="st0" d="M336.1,63.3v3.9h-8.4v5.5h7.9v3.9h-7.9V83h8.7v3.9h-13.5V63.3H336.1z"/>
		<path class="st0" d="M348.8,71.3c0-3.4-0.7-4.9-2.8-4.9c-2.4,0-3,2.4-3,9.1c0,7.1,1,8.4,3,8.4c1.7,0,3-0.9,3-6h4.8
			c0,5.1-1.3,9.5-7.5,9.5c-7.1,0-8-5.1-8-12.2c0-7.2,0.9-12.2,8-12.2c6.8,0,7.3,5,7.3,8.4H348.8z"/>
		<path class="st0" d="M356.7,86.9V63.3h4.8v23.6H356.7z"/>
		<path class="st0" d="M368.8,79.5v0.7c0,2.2,0.6,3.6,3.1,3.6c1.5,0,2.8-0.9,2.8-2.9c0-2.1-1.1-2.9-4.2-4c-4.2-1.5-6.2-3.2-6.2-7.1
			c0-4.6,2.8-6.9,7.3-6.9c4.2,0,7.3,1.8,7.3,6.3v0.7h-4.6c0-2.2-0.8-3.5-2.6-3.5c-2.1,0-2.7,1.4-2.7,2.7c0,1.5,0.4,2.3,2.4,3.2
			l3.7,1.6c3.6,1.6,4.5,3.4,4.5,6.2c0,5-3,7.2-8.2,7.2c-5.4,0-7.5-2.5-7.5-6.9v-1H368.8z"/>
		<path class="st0" d="M382.4,86.9V63.3h4.8v23.6H382.4z"/>
		<path class="st0" d="M398.2,62.9c7.1,0,8,5.1,8,12.2c0,7.2-0.9,12.2-8,12.2c-7.1,0-8-5.1-8-12.2C390.1,68,391,62.9,398.2,62.9z
			 M398.2,83.9c2.8,0,3.3-2.4,3.3-8.7c0-6.3-0.5-8.7-3.3-8.7c-2.8,0-3.3,2.4-3.3,8.7C394.9,81.5,395.4,83.9,398.2,83.9z"/>
		<path class="st0" d="M414.5,63.3l5.7,16.1h0.1V63.3h4.4v23.6h-5.4l-5.8-16.5h-0.1v16.5H409V63.3H414.5z"/>
	</g>
</g>
<g>
	<path class="st1" d="M5.8,73.9c-0.2-1-1-1.5-2-1.5c-1.7,0-2.4,1.4-2.4,2.9c0,1.6,0.7,3,2.4,3c1.3,0,2-0.9,2.1-2.1h0.9
		C6.6,78,5.5,79,3.7,79c-2.2,0-3.3-1.6-3.3-3.7c0-2.1,1.2-3.8,3.4-3.8c1.5,0,2.7,0.8,2.9,2.3H5.8z"/>
	<path class="st1" d="M12.3,77.2c-0.2,1.1-1,1.8-2.2,1.8c-1.6,0-2.4-1.1-2.5-2.7c0-1.5,1-2.7,2.4-2.7c1.8,0,2.4,1.7,2.3,3H8.6
		c0,0.9,0.5,1.7,1.6,1.7c0.7,0,1.2-0.3,1.3-1H12.3z M11.5,75.8c0-0.8-0.6-1.5-1.5-1.5c-0.9,0-1.4,0.7-1.5,1.5H11.5z"/>
	<path class="st1" d="M13.4,71.7h0.8v7.1h-0.8V71.7z"/>
	<path class="st1" d="M20,77.2c-0.2,1.1-1,1.8-2.2,1.8c-1.6,0-2.4-1.1-2.5-2.7c0-1.5,1-2.7,2.4-2.7c1.8,0,2.4,1.7,2.3,3h-3.9
		c0,0.9,0.5,1.7,1.6,1.7c0.7,0,1.2-0.3,1.3-1H20z M19.2,75.8c0-0.8-0.6-1.5-1.5-1.5c-0.9,0-1.4,0.7-1.5,1.5H19.2z"/>
	<path class="st1" d="M21.1,71.7H22v2.7h0c0.3-0.6,0.9-0.8,1.6-0.8c1.6,0,2.4,1.3,2.4,2.7c0,1.5-0.8,2.7-2.4,2.7
		c-0.5,0-1.3-0.2-1.7-0.8h0v0.7h-0.8V71.7z M23.5,74.3c-1.1,0-1.6,1-1.6,1.9c0,1,0.5,2,1.6,2c1.2,0,1.5-1,1.5-2
		C25.1,75.3,24.6,74.3,23.5,74.3z"/>
	<path class="st1" d="M27.1,73.7h0.8v1.1h0c0.4-0.8,1-1.2,1.9-1.2v0.9c-1.4,0-1.9,0.8-1.9,2.1v2.3h-0.8V73.7z"/>
	<path class="st1" d="M35.1,78.8c-0.1,0.1-0.3,0.1-0.6,0.1c-0.4,0-0.7-0.2-0.7-0.8c-0.5,0.5-1.1,0.8-1.8,0.8c-0.9,0-1.7-0.4-1.7-1.4
		c0-1.2,0.9-1.4,1.7-1.6c0.9-0.2,1.7-0.1,1.7-0.8c0-0.7-0.6-0.9-1.1-0.9c-0.7,0-1.2,0.2-1.3,1h-0.8c0-1.3,1-1.7,2.2-1.7
		c0.9,0,1.9,0.2,1.9,1.4v2.7c0,0.4,0,0.6,0.3,0.6c0.1,0,0.2,0,0.3,0V78.8z M33.7,76.2c-0.3,0.2-1,0.3-1.5,0.3c-0.6,0.1-1,0.3-1,0.9
		c0,0.6,0.5,0.8,1,0.8c1.1,0,1.6-0.7,1.6-1.2V76.2z"/>
	<path class="st1" d="M37.1,73.7h1v0.8h-1v3.2c0,0.4,0.1,0.5,0.6,0.5h0.4v0.8h-0.6c-0.9,0-1.2-0.2-1.2-1.1v-3.3h-0.9v-0.8h0.9v-1.5
		h0.8V73.7z"/>
	<path class="st1" d="M40,72.8h-0.8v-1H40V72.8z M39.1,73.7H40v5.2h-0.8V73.7z"/>
	<path class="st1" d="M41.3,73.7h0.8v0.8h0c0.4-0.6,0.9-0.9,1.7-0.9c1.4,0,1.8,0.8,1.8,1.9v3.4h-0.8v-3.5c0-0.6-0.4-1-1-1
		c-1,0-1.5,0.7-1.5,1.6v2.9h-0.8V73.7z"/>
	<path class="st1" d="M51.3,78.4c0,1.7-0.8,2.5-2.4,2.5c-1,0-2.1-0.4-2.1-1.5h0.8c0,0.6,0.8,0.8,1.3,0.8c1.1,0,1.5-0.8,1.5-2V78h0
		c-0.3,0.6-1,0.9-1.6,0.9c-1.5,0-2.3-1.2-2.3-2.6c0-1.2,0.6-2.7,2.4-2.7c0.7,0,1.2,0.3,1.5,0.9h0v-0.7h0.8V78.4z M50.5,76.2
		c0-0.9-0.4-1.8-1.5-1.8c-1.1,0-1.5,0.9-1.5,1.9c0,0.9,0.3,2,1.5,2C50.1,78.2,50.5,77.1,50.5,76.2z"/>
	<path class="st1" d="M55.4,73.7h0.8v0.7h0c0.3-0.6,0.9-0.8,1.6-0.8c1.6,0,2.4,1.3,2.4,2.7c0,1.5-0.8,2.7-2.4,2.7
		c-0.5,0-1.3-0.2-1.7-0.8h0v2.7h-0.8V73.7z M57.8,74.3c-1.1,0-1.6,1-1.6,1.9c0,1,0.5,2,1.6,2c1.2,0,1.5-1,1.5-2
		C59.4,75.3,58.9,74.3,57.8,74.3z"/>
	<path class="st1" d="M62.3,72.8h-0.8v-1h0.8V72.8z M61.4,73.7h0.8v5.2h-0.8V73.7z"/>
	<path class="st1" d="M65.9,73.6c1.6,0,2.5,1.2,2.5,2.7c0,1.5-0.9,2.7-2.5,2.7c-1.6,0-2.5-1.2-2.5-2.7
		C63.4,74.8,64.2,73.6,65.9,73.6z M65.9,78.2c0.9,0,1.6-0.7,1.6-1.9c0-1.3-0.7-2-1.6-2s-1.6,0.7-1.6,2C64.3,77.5,65,78.2,65.9,78.2z
		"/>
	<path class="st1" d="M69.4,73.7h0.8v0.8h0c0.4-0.6,0.9-0.9,1.7-0.9c1.4,0,1.8,0.8,1.8,1.9v3.4h-0.8v-3.5c0-0.6-0.4-1-1-1
		c-1,0-1.5,0.7-1.5,1.6v2.9h-0.8V73.7z"/>
	<path class="st1" d="M79.4,77.2c-0.2,1.1-1,1.8-2.2,1.8c-1.6,0-2.4-1.1-2.5-2.7c0-1.5,1-2.7,2.4-2.7c1.8,0,2.4,1.7,2.3,3h-3.9
		c0,0.9,0.5,1.7,1.6,1.7c0.7,0,1.2-0.3,1.3-1H79.4z M78.6,75.8c0-0.8-0.6-1.5-1.5-1.5c-0.9,0-1.4,0.7-1.5,1.5H78.6z"/>
	<path class="st1" d="M85,77.2c-0.2,1.1-1,1.8-2.2,1.8c-1.6,0-2.4-1.1-2.5-2.7c0-1.5,1-2.7,2.4-2.7c1.8,0,2.4,1.7,2.3,3h-3.9
		c0,0.9,0.5,1.7,1.6,1.7c0.7,0,1.2-0.3,1.3-1H85z M84.1,75.8c0-0.8-0.6-1.5-1.5-1.5c-0.9,0-1.4,0.7-1.5,1.5H84.1z"/>
	<path class="st1" d="M86,73.7h0.8v1.1h0c0.4-0.8,1-1.2,1.9-1.2v0.9c-1.4,0-1.9,0.8-1.9,2.1v2.3H86V73.7z"/>
	<path class="st1" d="M90.4,72.8h-0.8v-1h0.8V72.8z M89.5,73.7h0.8v5.2h-0.8V73.7z"/>
	<path class="st1" d="M91.7,73.7h0.8v0.8h0c0.4-0.6,0.9-0.9,1.7-0.9c1.4,0,1.8,0.8,1.8,1.9v3.4h-0.8v-3.5c0-0.6-0.4-1-1-1
		c-1,0-1.5,0.7-1.5,1.6v2.9h-0.8V73.7z"/>
	<path class="st1" d="M101.7,78.4c0,1.7-0.8,2.5-2.4,2.5c-1,0-2.1-0.4-2.1-1.5h0.8c0,0.6,0.8,0.8,1.3,0.8c1.1,0,1.5-0.8,1.5-2V78h0
		c-0.3,0.6-1,0.9-1.6,0.9c-1.5,0-2.3-1.2-2.3-2.6c0-1.2,0.6-2.7,2.4-2.7c0.7,0,1.2,0.3,1.5,0.9h0v-0.7h0.8V78.4z M100.9,76.2
		c0-0.9-0.4-1.8-1.5-1.8c-1.1,0-1.5,0.9-1.5,1.9c0,0.9,0.3,2,1.5,2S100.9,77.1,100.9,76.2z"/>
	<path class="st1" d="M107.9,71.7h1l2.8,7.1h-1l-0.8-2.1h-3l-0.8,2.1h-1L107.9,71.7z M107.2,75.9h2.4l-1.2-3.3h0L107.2,75.9z"/>
	<path class="st1" d="M112.6,74.5h-0.9v-0.8h0.9v-0.8c0-0.8,0.5-1.3,1.4-1.3c0.2,0,0.4,0,0.5,0.1v0.7c-0.2-0.1-0.3-0.1-0.5-0.1
		c-0.4,0-0.6,0.1-0.6,0.6v0.7h1v0.8h-1v4.4h-0.8V74.5z"/>
	<path class="st1" d="M115.3,73.7h0.8v1.1h0c0.4-0.8,1-1.2,1.9-1.2v0.9c-1.4,0-1.9,0.8-1.9,2.1v2.3h-0.8V73.7z"/>
	<path class="st1" d="M119.6,72.8h-0.8v-1h0.8V72.8z M118.8,73.7h0.8v5.2h-0.8V73.7z"/>
	<path class="st1" d="M124.5,75.4c-0.1-0.6-0.6-1-1.3-1c-1.2,0-1.6,1-1.6,2c0,0.9,0.4,1.9,1.5,1.9c0.8,0,1.3-0.5,1.4-1.3h0.9
		c-0.2,1.3-1,2-2.3,2c-1.6,0-2.4-1.1-2.4-2.6c0-1.5,0.8-2.8,2.4-2.8c1.2,0,2.1,0.5,2.2,1.8H124.5z"/>
	<path class="st1" d="M131,78.8c-0.1,0.1-0.3,0.1-0.6,0.1c-0.4,0-0.7-0.2-0.7-0.8c-0.5,0.5-1.1,0.8-1.8,0.8c-0.9,0-1.7-0.4-1.7-1.4
		c0-1.2,0.9-1.4,1.7-1.6c0.9-0.2,1.7-0.1,1.7-0.8c0-0.7-0.6-0.9-1.1-0.9c-0.7,0-1.2,0.2-1.3,1h-0.8c0-1.3,1-1.7,2.2-1.7
		c0.9,0,1.9,0.2,1.9,1.4v2.7c0,0.4,0,0.6,0.3,0.6c0.1,0,0.2,0,0.3,0V78.8z M129.7,76.2c-0.3,0.2-1,0.3-1.5,0.3c-0.6,0.1-1,0.3-1,0.9
		c0,0.6,0.5,0.8,1,0.8c1.1,0,1.6-0.7,1.6-1.2V76.2z"/>
	<path class="st1" d="M131.9,73.7h0.8v0.8h0c0.4-0.6,0.9-0.9,1.7-0.9c1.4,0,1.8,0.8,1.8,1.9v3.4h-0.8v-3.5c0-0.6-0.4-1-1-1
		c-1,0-1.5,0.7-1.5,1.6v2.9h-0.8V73.7z"/>
	<path class="st1" d="M137.4,75.7h2.9v0.8h-2.9V75.7z"/>
	<path class="st1" d="M143.6,71.7h1l2.8,7.1h-1l-0.8-2.1h-3l-0.8,2.1h-1L143.6,71.7z M142.9,75.9h2.4l-1.2-3.3h0L142.9,75.9z"/>
	<path class="st1" d="M148.1,73.7h0.8v0.8h0c0.4-0.6,1-0.9,1.7-0.9c0.6,0,1.2,0.3,1.4,0.9c0.3-0.5,1-0.9,1.6-0.9
		c1,0,1.7,0.4,1.7,1.5v3.8h-0.8v-3.4c0-0.6-0.2-1.1-1-1.1c-0.8,0-1.3,0.5-1.3,1.3v3.2h-0.8v-3.4c0-0.7-0.2-1.1-1-1.1
		c-1,0-1.4,0.9-1.4,1.3v3.2h-0.8V73.7z"/>
	<path class="st1" d="M161.1,77.2c-0.2,1.1-1,1.8-2.2,1.8c-1.6,0-2.4-1.1-2.5-2.7c0-1.5,1-2.7,2.4-2.7c1.8,0,2.4,1.7,2.3,3h-3.9
		c0,0.9,0.5,1.7,1.6,1.7c0.7,0,1.2-0.3,1.3-1H161.1z M160.3,75.8c0-0.8-0.6-1.5-1.5-1.5c-0.9,0-1.4,0.7-1.5,1.5H160.3z"/>
	<path class="st1" d="M162.2,73.7h0.8v1.1h0c0.4-0.8,1-1.2,1.9-1.2v0.9c-1.4,0-1.9,0.8-1.9,2.1v2.3h-0.8V73.7z"/>
	<path class="st1" d="M166.5,72.8h-0.8v-1h0.8V72.8z M165.7,73.7h0.8v5.2h-0.8V73.7z"/>
	<path class="st1" d="M171.4,75.4c-0.1-0.6-0.6-1-1.3-1c-1.2,0-1.6,1-1.6,2c0,0.9,0.4,1.9,1.5,1.9c0.8,0,1.3-0.5,1.4-1.3h0.9
		c-0.2,1.3-1,2-2.3,2c-1.6,0-2.4-1.1-2.4-2.6c0-1.5,0.8-2.8,2.4-2.8c1.2,0,2.1,0.5,2.2,1.8H171.4z"/>
	<path class="st1" d="M177.9,78.8c-0.1,0.1-0.3,0.1-0.6,0.1c-0.4,0-0.7-0.2-0.7-0.8c-0.5,0.5-1.1,0.8-1.8,0.8
		c-0.9,0-1.7-0.4-1.7-1.4c0-1.2,0.9-1.4,1.7-1.6c0.9-0.2,1.7-0.1,1.7-0.8c0-0.7-0.6-0.9-1.1-0.9c-0.7,0-1.2,0.2-1.3,1h-0.8
		c0-1.3,1-1.7,2.2-1.7c0.9,0,1.9,0.2,1.9,1.4v2.7c0,0.4,0,0.6,0.3,0.6c0.1,0,0.2,0,0.3,0V78.8z M176.6,76.2c-0.3,0.2-1,0.3-1.5,0.3
		c-0.6,0.1-1,0.3-1,0.9c0,0.6,0.5,0.8,1,0.8c1.1,0,1.6-0.7,1.6-1.2V76.2z"/>
	<path class="st1" d="M178.8,73.7h0.8v0.8h0c0.4-0.6,0.9-0.9,1.7-0.9c1.4,0,1.8,0.8,1.8,1.9v3.4h-0.8v-3.5c0-0.6-0.4-1-1-1
		c-1,0-1.5,0.7-1.5,1.6v2.9h-0.8V73.7z"/>
	<path class="st1" d="M187.7,77.2c0,0.8,0.7,1,1.4,1c0.5,0,1.2-0.1,1.2-0.8c0-0.7-0.8-0.8-1.7-1c-0.8-0.2-1.7-0.5-1.7-1.5
		c0-1,1-1.5,1.9-1.5c1.1,0,2,0.4,2.1,1.6h-0.8c-0.1-0.7-0.6-0.9-1.2-0.9c-0.5,0-1.1,0.1-1.1,0.7c0,0.6,0.9,0.7,1.7,0.9
		c0.8,0.2,1.7,0.5,1.7,1.5c0,1.2-1.1,1.6-2.2,1.6c-1.2,0-2.1-0.5-2.2-1.7H187.7z"/>
	<path class="st1" d="M193.4,73.7h1v0.8h-1v3.2c0,0.4,0.1,0.5,0.6,0.5h0.4v0.8h-0.6c-0.9,0-1.2-0.2-1.2-1.1v-3.3h-0.9v-0.8h0.9v-1.5
		h0.8V73.7z"/>
	<path class="st1" d="M199.6,78.9h-0.8V78h0c-0.4,0.6-0.9,0.9-1.7,0.9c-1.4,0-1.8-0.8-1.8-1.9v-3.4h0.8v3.5c0,0.6,0.4,1,1,1
		c1,0,1.5-0.7,1.5-1.6v-2.9h0.8V78.9z"/>
	<path class="st1" d="M205.6,78.9h-0.8v-0.7h0c-0.3,0.6-0.9,0.8-1.6,0.8c-1.6,0-2.4-1.3-2.4-2.7c0-1.5,0.8-2.7,2.4-2.7
		c0.5,0,1.3,0.2,1.7,0.8h0v-2.7h0.8V78.9z M203.2,78.2c1.1,0,1.6-1,1.6-1.9c0-1-0.5-2-1.6-2c-1.2,0-1.5,1-1.5,2
		C201.6,77.3,202.1,78.2,203.2,78.2z"/>
	<path class="st1" d="M211.4,77.2c-0.2,1.1-1,1.8-2.2,1.8c-1.6,0-2.4-1.1-2.5-2.7c0-1.5,1-2.7,2.4-2.7c1.8,0,2.4,1.7,2.3,3h-3.9
		c0,0.9,0.5,1.7,1.6,1.7c0.7,0,1.2-0.3,1.3-1H211.4z M210.5,75.8c0-0.8-0.6-1.5-1.5-1.5c-0.9,0-1.4,0.7-1.5,1.5H210.5z"/>
	<path class="st1" d="M212.4,73.7h0.8v0.8h0c0.4-0.6,0.9-0.9,1.7-0.9c1.4,0,1.8,0.8,1.8,1.9v3.4h-0.8v-3.5c0-0.6-0.4-1-1-1
		c-1,0-1.5,0.7-1.5,1.6v2.9h-0.8V73.7z"/>
	<path class="st1" d="M219.2,73.7h1v0.8h-1v3.2c0,0.4,0.1,0.5,0.6,0.5h0.4v0.8h-0.6c-0.9,0-1.2-0.2-1.2-1.1v-3.3h-0.9v-0.8h0.9v-1.5
		h0.8V73.7z"/>
	<path class="st1" d="M220.7,75.7h2.9v0.8h-2.9V75.7z"/>
	<path class="st1" d="M229.4,78.8c-0.1,0.1-0.3,0.1-0.6,0.1c-0.4,0-0.7-0.2-0.7-0.8c-0.5,0.5-1.1,0.8-1.8,0.8
		c-0.9,0-1.7-0.4-1.7-1.4c0-1.2,0.9-1.4,1.7-1.6c0.9-0.2,1.7-0.1,1.7-0.8c0-0.7-0.6-0.9-1.1-0.9c-0.7,0-1.2,0.2-1.3,1h-0.8
		c0-1.3,1-1.7,2.2-1.7c0.9,0,1.9,0.2,1.9,1.4v2.7c0,0.4,0,0.6,0.3,0.6c0.1,0,0.2,0,0.3,0V78.8z M228,76.2c-0.3,0.2-1,0.3-1.5,0.3
		c-0.6,0.1-1,0.3-1,0.9c0,0.6,0.5,0.8,1,0.8c1.1,0,1.6-0.7,1.6-1.2V76.2z"/>
	<path class="st1" d="M231.4,73.7h1v0.8h-1v3.2c0,0.4,0.1,0.5,0.6,0.5h0.4v0.8h-0.6c-0.9,0-1.2-0.2-1.2-1.1v-3.3h-0.9v-0.8h0.9v-1.5
		h0.8V73.7z"/>
	<path class="st1" d="M233.3,71.7h0.8v2.7h0c0.3-0.6,1-0.9,1.6-0.9c1.4,0,1.8,0.8,1.8,1.9v3.4h-0.8v-3.5c0-0.6-0.4-1-1-1
		c-1,0-1.5,0.7-1.5,1.6v2.9h-0.8V71.7z"/>
	<path class="st1" d="M239,71.7h0.8v7.1H239V71.7z"/>
	<path class="st1" d="M245.6,77.2c-0.2,1.1-1,1.8-2.2,1.8c-1.6,0-2.4-1.1-2.5-2.7c0-1.5,1-2.7,2.4-2.7c1.8,0,2.4,1.7,2.3,3h-3.9
		c0,0.9,0.5,1.7,1.6,1.7c0.7,0,1.2-0.3,1.3-1H245.6z M244.8,75.8c0-0.8-0.6-1.5-1.5-1.5c-0.9,0-1.4,0.7-1.5,1.5H244.8z"/>
	<path class="st1" d="M247.8,73.7h1v0.8h-1v3.2c0,0.4,0.1,0.5,0.6,0.5h0.4v0.8h-0.6c-0.9,0-1.2-0.2-1.2-1.1v-3.3H246v-0.8h0.9v-1.5
		h0.8V73.7z"/>
	<path class="st1" d="M254,77.2c-0.2,1.1-1,1.8-2.2,1.8c-1.6,0-2.4-1.1-2.5-2.7c0-1.5,1-2.7,2.4-2.7c1.8,0,2.4,1.7,2.3,3h-3.9
		c0,0.9,0.5,1.7,1.6,1.7c0.7,0,1.2-0.3,1.3-1H254z M253.2,75.8c0-0.8-0.6-1.5-1.5-1.5c-0.9,0-1.4,0.7-1.5,1.5H253.2z"/>
	<path class="st1" d="M255.6,77.2c0,0.8,0.7,1,1.4,1c0.5,0,1.2-0.1,1.2-0.8c0-0.7-0.8-0.8-1.7-1c-0.8-0.2-1.7-0.5-1.7-1.5
		c0-1,1-1.5,1.9-1.5c1.1,0,2,0.4,2.1,1.6h-0.8c-0.1-0.7-0.6-0.9-1.2-0.9c-0.5,0-1.1,0.1-1.1,0.7c0,0.6,0.9,0.7,1.7,0.9
		c0.8,0.2,1.7,0.5,1.7,1.5c0,1.2-1.1,1.6-2.2,1.6c-1.2,0-2.1-0.5-2.2-1.7H255.6z"/>
	<path class="st1" d="M267.5,78.8c-0.1,0.1-0.3,0.1-0.6,0.1c-0.4,0-0.7-0.2-0.7-0.8c-0.5,0.5-1.1,0.8-1.8,0.8
		c-0.9,0-1.7-0.4-1.7-1.4c0-1.2,0.9-1.4,1.7-1.6c0.9-0.2,1.7-0.1,1.7-0.8c0-0.7-0.6-0.9-1.1-0.9c-0.7,0-1.2,0.2-1.3,1h-0.8
		c0-1.3,1-1.7,2.2-1.7c0.9,0,1.9,0.2,1.9,1.4v2.7c0,0.4,0,0.6,0.3,0.6c0.1,0,0.2,0,0.3,0V78.8z M266.1,76.2c-0.3,0.2-1,0.3-1.5,0.3
		c-0.6,0.1-1,0.3-1,0.9c0,0.6,0.5,0.8,1,0.8c1.1,0,1.6-0.7,1.6-1.2V76.2z"/>
	<path class="st1" d="M269.5,73.7h1v0.8h-1v3.2c0,0.4,0.1,0.5,0.6,0.5h0.4v0.8h-0.6c-0.9,0-1.2-0.2-1.2-1.1v-3.3h-0.9v-0.8h0.9v-1.5
		h0.8V73.7z"/>
	<path class="st1" d="M280.8,78.9h-1l-1.6-6h0l-1.6,6h-1l-1.8-7.1h1l1.4,5.9h0l1.6-5.9h1l1.6,5.9h0l1.4-5.9h0.9L280.8,78.9z"/>
	<path class="st1" d="M286.8,78.9h-1.1l-2.5-7.1h1l2,6.2h0l2.1-6.2h1L286.8,78.9z"/>
	<path class="st1" d="M295.9,76.3c0,1.8-1,2.7-2.8,2.7c-1.8,0-2.9-0.8-2.9-2.7v-4.6h1v4.6c0,1.3,0.7,1.9,2,1.9
		c1.2,0,1.9-0.7,1.9-1.9v-4.6h0.9V76.3z"/>
</g>
<rect x="0" y="63.8" class="st0" width="298.2" height="4.1"/>
<rect x="0" y="82.8" class="st0" width="298.2" height="4.1"/>
<rect x="215.9" y="3.5" class="st0" width="209.3" height="4.1"/>
<rect x="215.9" y="12.6" class="st0" width="209.3" height="4.1"/>
<rect x="215.9" y="23.2" class="st0" width="209.3" height="4.1"/>
</svg>
